<svg width="38" height="36" viewBox="0 0 38 36" fill="none" xmlns="http://www.w3.org/2000/svg">
<path d="M11.062 23.0726L12.182 20.1397M19.973 23.0726L18.5946 20.1397M12.182 20.1397L15.0566 12.6117L18.5946 20.1397M12.182 20.1397H18.5946M21.9191 12.6117H24.1725M26.4259 12.6117H24.1725M26.4259 23.0726H24.1725M21.9191 23.0726H24.1725M24.1725 12.6117V23.0726M38 8.31006H31.6496L28.8841 5.98094M6.14555 8.31006L8.09164 5.3771H9.21833M6.14555 8.31006V26.9832M6.14555 8.31006H0M6.14555 26.9832L8.09164 29.4274H9.21833M6.14555 26.9832H0M28.1671 29.4274L31.6496 26.9832M28.1671 29.4274L28.8841 35M28.1671 29.4274H24.1725M31.6496 26.9832V11.3408M31.6496 26.9832H38M34.5175 12.6117H38M34.5175 17.5978H38M34.5175 22.486H38M24.1725 35V29.4274M24.1725 29.4274H19.1536M19.1536 34.8045V29.4274M19.1536 29.4274H14.3396M14.3396 35V29.4274M14.3396 29.4274H9.21833M9.21833 35V29.4274M0 22.486H4.30189M0 17.5978H4.30189M0 12.6117H4.30189M9.21833 0V5.3771M9.21833 5.3771H14.3396M14.3396 0V5.3771M14.3396 5.3771H19.1536M19.1536 0V5.3771M19.1536 5.3771H24.1725M24.1725 0V5.3771M24.1725 5.3771H28.1671L28.8841 5.98094M28.8841 0V5.98094" stroke="#1F1C1C" stroke-width="2"/>
</svg>
