<svg width="114" height="74" viewBox="0 0 114 74" fill="none" xmlns="http://www.w3.org/2000/svg">
<path d="M55.6224 25.9793L55.2857 28.5586L54.3214 29.6138M55.6224 25.9793L55.7143 25.2759C57.707 23.8727 59.2284 23.2658 62.5714 22.4621H73.5H77.7857L81.2143 24.1034C81.4286 24.7287 81.9 25.9793 82.0714 25.9793C82.2429 25.9793 85.2857 29.1057 86.7857 30.669L88.9286 31.6069L89.3572 32.0759C90.5842 35.6092 90.3639 37.3087 89.7857 40.2828C92.2245 42.2389 93.8307 43.1866 94.2857 46.3793C92.9948 47.2928 92.2374 47.4879 90.8571 47.5517C92.8562 48.2154 94.9273 51.0864 94.2857 51.7724C94.1631 51.9035 94.2857 52.6322 94.2857 52.9448H92.5714C93.4718 55.2461 93.7902 56.5593 93.2143 59.0414C94.4586 59.9078 94.7658 60.8688 95.1429 62.7931C95.8568 70.1696 88.8002 73.0511 89.3572 67.4828C89.9141 61.9144 85.4261 68.8552 82.0714 68.4207L76.2857 67.2483L74.3572 66.7793L72.2143 68.1862V70.7655L66.4286 71V68.6552L66 67.7172C66.2857 67.6391 66.7714 67.4359 66.4286 67.2483C66.0857 67.0607 65.4286 66.0759 65.1429 65.6069L64.2857 63.4965L61.0714 61.3862C59.805 59.3218 59.9509 57.8973 60.4286 55.2897C59.9554 55.8997 58.5356 56.31 58.0714 55.7586C57.9553 55.6207 57.5714 53.4138 57.4286 52.2414L57.6429 50.131C55.9178 49.4078 55.4675 48.415 55.7143 45.4414C55.2057 44.0735 55.0395 43.3058 56.3571 41.9241L53.7857 38.4069C53.3711 36.9646 53.3617 36.1922 53.7857 34.8897L54.4286 33.7172C53.565 32.8482 53.1737 32.2934 53.3571 30.669L54.3214 29.6138M55.6224 25.9793C58.4469 26.5579 59.6353 27.0607 60.4286 28.5586C59.9526 29.6915 59.454 30.1287 58.2857 30.669C56.358 30.9344 55.5798 30.5425 54.3214 29.6138M3 3.70345L98.7857 71M3 3.70345L5.04953 18.0069M3 3.70345H22.2857M98.7857 71H81.2143M98.7857 71L101.212 57.6345M5.04953 18.0069L81.2143 71M5.04953 18.0069L7.19985 33.0138M81.2143 71H60.4286M7.19985 33.0138L60.4286 71M7.19985 33.0138L9.92135 52.0069M60.4286 71H44.1429M9.92135 52.0069L44.1429 71M9.92135 52.0069L11.2821 61.5034M44.1429 71H28.3929M11.2821 61.5034L12.6429 71H28.3929M11.2821 61.5034L28.3929 71M22.2857 3.70345L101.212 57.6345M22.2857 3.70345H51.8571M101.212 57.6345L103.765 43.5655M39.4286 3L103.765 43.5655M103.765 43.5655L105.34 34.8897M51.8571 3.70345L105.34 34.8897M51.8571 3.70345H69.4286M105.34 34.8897L107.085 25.2759M69.4286 3.70345L107.085 25.2759M69.4286 3.70345H86.7857M107.085 25.2759L108.83 15.6621M86.7857 3.70345L108.83 15.6621M86.7857 3.70345H98.8929M108.83 15.6621L109.915 9.68276M98.8929 3.70345H111L109.915 9.68276M98.8929 3.70345L109.915 9.68276M12.2143 41.9241C18.7854 40.9998 22.8981 40.8329 31.9286 41.9241C35.9904 43.4215 38.0537 44.5862 41.1429 47.5517C43.3597 49.347 44.446 50.5975 45.8571 53.6483C45.8551 54.735 45.6229 55.162 45 55.7586C44.7143 56.3057 44.1135 57.4497 44.1429 57.6345C44.2045 58.0223 43.0769 58.5862 42.4286 58.5724L38.3572 59.9793L32.1429 61.1517L25.0714 62.7931L22.5 63.2621C24.6957 65.521 26.3999 69.9342 25.5 70.0621C25.2596 70.0962 24.8572 70.6092 24.4286 70.7655H17.7857C15.8897 70.2929 14.8789 69.9692 14.1429 68.1862L12.6429 69.1241C8.83361 48.8948 6.4238 36.8299 12.2143 41.9241ZM27.2143 46.6138L27.8572 48.9586C26.5515 52.1173 22.9911 54.7899 22.2857 55.5241C21.8873 55.9389 17.7309 55.2369 16.0714 54.1172C15.1937 52.1043 15.1752 50.9724 16.0714 48.9586C16.5741 47.2256 17.1085 46.2487 18.4286 44.5034C19.1998 43.527 19.715 43.3308 20.7857 43.5655C24.0858 44.231 25.2967 45.0289 27.2143 46.6138ZM34.5 49.1931C33.7728 48.9939 32.4537 49.466 32.3572 49.8966C32.2374 51.1393 32.7326 51.5377 34.0714 52.0069C35.0982 50.9443 35.1332 50.3249 34.5 49.1931ZM72.2143 32.0759C72.3612 30.7311 73.1613 30.584 75 30.669C76.3759 31.1576 76.8318 31.7284 77.3571 33.0138C76.9865 33.8864 76.7426 34.3587 75.6429 34.8897C74.2074 34.1573 73.4305 33.6424 72.2143 32.0759ZM84.2143 33.0138C85.3603 32.3407 86.1187 32.2458 87.8571 33.0138C89.6798 37.8232 89.1799 39.2771 88.9286 42.3931C87.2346 40.6647 86.2357 39.7881 84.8571 37.469C83.6234 35.7151 83.5271 34.739 84.2143 33.0138Z" stroke="#7D7F85" stroke-width="5"/>
</svg>
