<svg width="91" height="87" viewBox="0 0 91 87" fill="none" xmlns="http://www.w3.org/2000/svg">
<path d="M50.3909 7.92857L40.6571 17.1927M50.3909 7.92857L49.3094 51.5245M50.3909 7.92857L56.4984 14.468L59.5521 17.7377M59.0432 79.8619V72.7776M59.0432 79.8619H39.5756M59.0432 79.8619H67.6955M59.0432 51.5245V58.6089M59.0432 51.5245H49.3094M59.0432 51.5245L59.5521 17.7377M39.5756 51.5245V58.6089M39.5756 51.5245L40.6571 17.1927M39.5756 51.5245H49.3094M39.5756 79.8619V72.7776M39.5756 79.8619H30.9233M39.5756 65.6932H59.0432M39.5756 65.6932V72.7776M39.5756 65.6932V58.6089M59.0432 65.6932V72.7776M59.0432 65.6932V58.6089M39.5756 72.7776H59.0432M39.5756 58.6089H59.0432M30.9233 26.4569L11.4557 44.9851H22.271V79.8619H30.9233M30.9233 26.4569V79.8619M30.9233 26.4569L40.6571 17.1927M67.6955 79.8619H76.3477V44.9851H85L67.6955 26.4569M67.6955 79.8619V26.4569M67.6955 26.4569L62.6059 21.0074L59.5521 17.7377M85 2L2 85" stroke="#7D7F85" stroke-width="5"/>
</svg>
