<svg width="93" height="74" viewBox="0 0 93 74" fill="none" xmlns="http://www.w3.org/2000/svg">
<path d="M2.90355 23.7778C1.57378 26.599 1.83068 28.1397 2.90355 30.8611L8.02687 34.1667L16.0778 37L27.0563 44.0833L32.9116 46.4444V48.3333C29.8532 48.6358 28.5724 49.05 27.0563 50.2222L30.7159 50.6944L29.2521 52.5833C32.1693 53.0065 33.6913 53.1043 35.8392 52.5833C38.703 54.1058 38.9935 55.3484 38.7668 57.7778L38.0349 64.8611C36.6289 66.0514 36.3625 66.8957 36.5711 68.6389H38.7668V70.5278L41.6944 70.0556L42.4263 71C44.7712 69.9053 45.7844 68.957 47.5496 67.2222C48.3478 64.9198 48.1486 60.0906 48.2815 60.1389C49.5635 60.6044 55.6624 52.5044 55.6006 52.5833C54.7969 53.6089 66.6599 50.0455 70.9705 47.3889C73.7382 48.1416 74.2833 48.8309 74.63 50.2222C70.5843 53.2358 67.7534 54.6192 66.5791 59.1944C68.8441 58.6436 70.1337 58.0352 72.4343 56.8333C69.9082 58.3984 69.1516 59.4432 68.7748 61.5556C71.7313 60.6559 73.0477 59.854 74.63 57.7778C73.6554 59.527 73.4013 60.5476 73.8981 62.5C77.55 59.7495 79.6713 58.3368 82.681 54.4722C83.2263 52.7199 83.2932 51.6976 82.681 49.75L87.8043 39.8333C89.4246 35.3249 89.9623 32.749 90 28.0278C89.1713 23.6299 87.7299 21.2951 84.8767 17.1667C81.764 11.2855 77.2056 9.49294 67.311 7.25C62.5714 7.97368 60.5921 8.63231 57.7963 10.0833C54.6481 9.75522 52.8846 9.73565 49.7453 10.5556C46.7441 7.96641 43.6486 7.50204 37.303 7.25C37.0364 5.27684 35.377 4.40614 31.4478 3C27.7635 4.24072 26.2517 5.21589 24.1287 7.25C16.5508 10.3259 12.858 12.5065 7.29497 17.1667C4.3994 19.1441 3.54949 20.6481 2.90355 23.7778ZM19.0054 14.3333C17.5872 18.6142 17.2727 20.9809 16.8097 25.1944C20.0736 27.3328 22.0117 28.4188 26.3244 29.4444C29.402 27.8717 30.7252 26.6645 32.1797 23.7778C31.5182 17.8898 29.882 15.0335 21.2011 11.9722C19.779 12.7439 19.2918 13.2586 19.0054 14.3333ZM11.6864 18.1111C9.55931 19.615 9.0763 20.6483 9.49068 22.8333C10.7031 23.9954 11.5293 24.2722 13.1502 24.25C13.8924 22.677 14.2743 21.7781 14.614 20C14.17 18.8985 13.556 18.4828 11.6864 18.1111Z" stroke="#7D7F85" stroke-width="4"/>
</svg>
