<svg width="59" height="50" viewBox="0 0 59 50" fill="none" xmlns="http://www.w3.org/2000/svg">
<path d="M29.5941 36.1598C29.6335 36.3713 29.6561 36.4927 30.1058 36.6526C30.8358 36.5259 30.9997 36.2848 31.2181 35.8033C31.6555 36.399 31.9822 36.6933 33.0148 37C33.4088 36.9359 33.6003 36.8525 33.742 36.3824C34.3165 36.7208 34.6345 36.7616 35.1965 36.6526C35.3641 36.1214 35.3159 35.8623 35.0254 35.4559C35.3697 35.5967 35.5733 35.6578 36.0521 35.5717C36.3005 35.241 36.2634 34.9906 36.0521 34.4908C35.5709 33.8284 35.25 33.4832 34.5976 32.9081C35.0829 32.163 35.1306 31.7301 34.9398 30.9394C36.7694 31.3906 37.6151 31.1771 39.0894 30.7078C42.3138 30.6475 43.8355 30.4017 46.1479 29.6655C48.7948 29.6222 50.2748 29.5229 52.8642 28.4302C55.5038 27.6364 56.9363 27.1129 58.6822 24.8402C58.8544 24.1802 58.8965 23.8096 58.3399 23.1417C59.222 21.4799 59.218 20.5249 58.3399 18.7796C57.2019 16.1889 56.2455 14.8661 54.0193 12.719C55.18 11.8089 55.6155 11.2511 54.9604 9.93958C52.5916 8.79009 51.278 8.20561 48.9713 7.31461C46.4329 6.24178 44.926 5.90439 42.0411 5.92491C40.4943 6.07554 39.6986 6.32649 38.3622 6.96718C35.2603 6.7697 33.5868 6.40945 30.6619 5.53889C28.8748 5.04975 27.9587 4.55559 26.4696 3.29994C24.0017 1.69241 22.3466 1.06202 19.1972 0.134523C15.7089 -0.0722982 13.761 -0.123529 10.3847 0.597754C7.43057 2.08337 5.92543 3.13599 4.05339 6.19513C2.67221 8.79123 2.26472 10.302 2 13.0664C2.37324 15.6411 2.78029 17.1013 3.96783 19.7446C3.83074 20.2414 4.26729 20.5167 4.26729 21.5204C4.26729 22.524 7.21692 23.64 7.39015 23.9137C7.56339 24.1874 7.73721 24.6309 7.60405 24.956C8.18175 25.6806 8.58196 25.9971 9.31521 26.5387C9.62439 26.8434 9.8185 26.9812 10.4275 26.8089C10.6465 26.3793 10.5069 26.1198 10.1708 25.6508L10.7269 26.3843C11.2557 26.9072 11.5573 26.8901 12.0958 26.8089C12.2833 26.1947 11.9775 25.6476 11.0691 24.4928C16.4922 27.6391 19.6889 29.0299 25.614 30.978C27.6493 31.9362 28.5347 32.693 29.5925 34.4908C29.4447 35.0506 29.3507 35.3579 29.5925 36.1507L29.5941 36.1598Z" fill="#020202"/>
<path d="M5.38 44.62C5.82 44.62 6.18 44.5867 6.46 44.52C6.75333 44.44 6.98667 44.34 7.16 44.22C7.33333 44.0867 7.45333 43.9333 7.52 43.76C7.58667 43.5867 7.62 43.3933 7.62 43.18C7.62 42.7267 7.40667 42.3533 6.98 42.06C6.55333 41.7533 5.82 41.4267 4.78 41.08C4.32667 40.92 3.87333 40.74 3.42 40.54C2.96667 40.3267 2.56 40.0667 2.2 39.76C1.84 39.44 1.54667 39.06 1.32 38.62C1.09333 38.1667 0.98 37.62 0.98 36.98C0.98 36.34 1.1 35.7667 1.34 35.26C1.58 34.74 1.92 34.3 2.36 33.94C2.8 33.58 3.33333 33.3067 3.96 33.12C4.58667 32.92 5.29333 32.82 6.08 32.82C7.01333 32.82 7.82 32.92 8.5 33.12C9.18 33.32 9.74 33.54 10.18 33.78L9.28 36.24C8.89333 36.04 8.46 35.8667 7.98 35.72C7.51333 35.56 6.94667 35.48 6.28 35.48C5.53333 35.48 4.99333 35.5867 4.66 35.8C4.34 36 4.18 36.3133 4.18 36.74C4.18 36.9933 4.24 37.2067 4.36 37.38C4.48 37.5533 4.64667 37.7133 4.86 37.86C5.08667 37.9933 5.34 38.12 5.62 38.24C5.91333 38.3467 6.23333 38.46 6.58 38.58C7.3 38.8467 7.92667 39.1133 8.46 39.38C8.99333 39.6333 9.43333 39.9333 9.78 40.28C10.14 40.6267 10.4067 41.0333 10.58 41.5C10.7533 41.9667 10.84 42.5333 10.84 43.2C10.84 44.4933 10.3867 45.5 9.48 46.22C8.57333 46.9267 7.20667 47.28 5.38 47.28C4.76667 47.28 4.21333 47.24 3.72 47.16C3.22667 47.0933 2.78667 47.0067 2.4 46.9C2.02667 46.7933 1.7 46.68 1.42 46.56C1.15333 46.44 0.926667 46.3267 0.74 46.22L1.62 43.74C2.03333 43.9667 2.54 44.1733 3.14 44.36C3.75333 44.5333 4.5 44.62 5.38 44.62ZM13.2406 33.14H16.3606V47H13.2406V33.14ZM25.8888 47.28C23.6354 47.28 21.9154 46.6533 20.7288 45.4C19.5554 44.1467 18.9688 42.3667 18.9688 40.06C18.9688 38.9133 19.1488 37.8933 19.5088 37C19.8688 36.0933 20.3621 35.3333 20.9888 34.72C21.6154 34.0933 22.3621 33.62 23.2288 33.3C24.0954 32.98 25.0354 32.82 26.0488 32.82C26.6354 32.82 27.1688 32.8667 27.6488 32.96C28.1288 33.04 28.5488 33.14 28.9088 33.26C29.2688 33.3667 29.5688 33.48 29.8088 33.6C30.0488 33.72 30.2221 33.8133 30.3288 33.88L29.4288 36.4C29.0021 36.1733 28.5021 35.98 27.9288 35.82C27.3688 35.66 26.7288 35.58 26.0088 35.58C25.5288 35.58 25.0554 35.66 24.5888 35.82C24.1354 35.98 23.7288 36.24 23.3688 36.6C23.0221 36.9467 22.7421 37.4 22.5288 37.96C22.3154 38.52 22.2088 39.2 22.2088 40C22.2088 40.64 22.2754 41.24 22.4088 41.8C22.5554 42.3467 22.7821 42.82 23.0888 43.22C23.4088 43.62 23.8221 43.94 24.3288 44.18C24.8354 44.4067 25.4488 44.52 26.1688 44.52C26.6221 44.52 27.0288 44.4933 27.3888 44.44C27.7488 44.3867 28.0688 44.3267 28.3488 44.26C28.6288 44.18 28.8754 44.0933 29.0888 44C29.3021 43.9067 29.4954 43.82 29.6688 43.74L30.5288 46.24C30.0888 46.5067 29.4688 46.7467 28.6688 46.96C27.8688 47.1733 26.9421 47.28 25.8888 47.28ZM37.9575 47.28C36.9842 47.28 36.1442 47.1467 35.4375 46.88C34.7308 46.6 34.1442 46.22 33.6775 45.74C33.2242 45.2467 32.8842 44.6667 32.6575 44C32.4442 43.32 32.3375 42.5733 32.3375 41.76V33.14H35.4575V41.5C35.4575 42.06 35.5175 42.54 35.6375 42.94C35.7708 43.3267 35.9442 43.6467 36.1575 43.9C36.3842 44.14 36.6508 44.3133 36.9575 44.42C37.2775 44.5267 37.6242 44.58 37.9975 44.58C38.7575 44.58 39.3708 44.3467 39.8375 43.88C40.3175 43.4133 40.5575 42.62 40.5575 41.5V33.14H43.6775V41.76C43.6775 42.5733 43.5642 43.32 43.3375 44C43.1108 44.68 42.7642 45.2667 42.2975 45.76C41.8308 46.24 41.2375 46.6133 40.5175 46.88C39.7975 47.1467 38.9442 47.28 37.9575 47.28ZM51.7581 38.84C52.3181 37.8933 52.8515 36.9467 53.3581 36C53.8648 35.0533 54.3315 34.1 54.7581 33.14H58.1981C57.4381 34.6333 56.6515 36.08 55.8381 37.48C55.0248 38.88 54.1648 40.2867 53.2581 41.7V47H50.1381V41.74C49.2315 40.3267 48.3648 38.9133 47.5381 37.5C46.7248 36.0867 45.9381 34.6333 45.1781 33.14H48.7981C49.2248 34.1 49.6848 35.0533 50.1781 36C50.6715 36.9467 51.1981 37.8933 51.7581 38.84Z" fill="#020202"/>
</svg>
