<svg width="28"
     height="26"
     viewBox="0 0 28 26"
     fill="none"
     xmlns="http://www.w3.org/2000/svg">
    <path d="M14.7059 1L11.5294 4.09091M14.7059 1L14.3529 15.5455M14.7059 1L16.699 3.18182L17.6955 4.27273M17.5294 25V22.6364M17.5294 25H11.1765M17.5294 25H20.3529M17.5294 15.5455V17.9091M17.5294 15.5455H14.3529M17.5294 15.5455L17.6955 4.27273M11.1765 15.5455V17.9091M11.1765 15.5455L11.5294 4.09091M11.1765 15.5455H14.3529M11.1765 25V22.6364M11.1765 25H8.35294M11.1765 20.2727H17.5294M11.1765 20.2727V22.6364M11.1765 20.2727V17.9091M17.5294 20.2727V22.6364M17.5294 20.2727V17.9091M11.1765 22.6364H17.5294M11.1765 17.9091H17.5294M8.35294 7.18182L2 13.3636H5.52941V25H8.35294M8.35294 7.18182V25M8.35294 7.18182L11.5294 4.09091M20.3529 25H23.1765V13.3636H26L20.3529 7.18182M20.3529 25V7.18182M20.3529 7.18182L18.692 5.36364L17.6955 4.27273"
          stroke="#4F5156"/>
</svg>
