<svg width="82" height="62" viewBox="0 0 82 62" fill="none" xmlns="http://www.w3.org/2000/svg">
<path d="M40.6117 47.4177C40.6671 47.695 40.6989 47.8542 41.3319 48.0639C42.3593 47.8978 42.5901 47.5816 42.8974 46.9502C43.5131 47.7313 43.9728 48.1173 45.4262 48.5195C45.9809 48.4355 46.2503 48.3261 46.4498 47.7095C47.2584 48.1533 47.706 48.2068 48.497 48.0639C48.7328 47.3674 48.665 47.0275 48.2561 46.4946C48.7407 46.6793 49.0273 46.7593 49.7012 46.6465C50.0509 46.2128 49.9986 45.8845 49.7012 45.2291C49.0239 44.3604 48.5722 43.9077 47.654 43.1536C48.3371 42.1766 48.4042 41.6089 48.1357 40.572C50.7109 41.1637 51.9011 40.8836 53.9762 40.2682C58.5145 40.1892 60.6562 39.8668 63.9109 38.9015C67.6364 38.8446 69.7194 38.7145 73.364 37.2816C77.0791 36.2406 79.0954 35.5541 81.5527 32.5738C81.7951 31.7084 81.8544 31.2225 81.071 30.3465C82.3125 28.1673 82.3069 26.9151 81.071 24.6264C79.4691 21.2291 78.1231 19.4945 74.9897 16.6789C76.6234 15.4854 77.2363 14.7539 76.3143 13.0341C72.9803 11.5268 71.1313 10.7603 67.8848 9.59191C64.312 8.18508 62.1911 7.74264 58.1307 7.76956C55.9535 7.96708 54.8335 8.29615 52.9526 9.13632C48.5868 8.87736 46.2314 8.40494 42.1146 7.26335C39.5993 6.62193 38.3098 5.97391 36.214 4.32733C32.7405 2.21932 30.4109 1.39267 25.9782 0.176405C21.0685 -0.0948072 18.3268 -0.161988 13.5747 0.783857C9.41687 2.732 7.29841 4.11234 4.66355 8.1239C2.71956 11.5283 2.14602 13.5094 1.77343 17.1344C2.29876 20.5108 2.87168 22.4256 4.54312 25.8919C4.35016 26.5433 4.9646 26.9043 4.9646 28.2204C4.9646 29.5366 9.11616 31.0001 9.35998 31.3589C9.60381 31.7178 9.84846 32.2994 9.66104 32.7257C10.4741 33.676 11.0374 34.091 12.0695 34.8012C12.5046 35.2007 12.7778 35.3814 13.6349 35.1555C13.9432 34.5921 13.7468 34.2519 13.2737 33.6369L14.0564 34.5987C14.8007 35.2844 15.2251 35.262 15.9832 35.1555C16.2471 34.35 15.8166 33.6326 14.5381 32.1183C22.1709 36.2441 26.6703 38.068 35.0098 40.6226C37.8744 41.8791 39.1206 42.8716 40.6094 45.2291C40.4013 45.9632 40.2691 46.3661 40.6094 47.4058L40.6117 47.4177Z" fill="url(#paint0_linear)"/>
<path d="M6.53073 58.5118C7.15002 58.5118 7.65671 58.4681 8.05081 58.3807C8.46367 58.2758 8.79208 58.1447 9.03605 57.9873C9.28001 57.8125 9.44891 57.6114 9.54274 57.3841C9.63657 57.1568 9.68349 56.9033 9.68349 56.6235C9.68349 56.029 9.38323 55.5395 8.7827 55.1548C8.18217 54.7527 7.15002 54.3243 5.68623 53.8697C5.04817 53.6599 4.41012 53.4239 3.77206 53.1616C3.134 52.8818 2.56162 52.5409 2.05493 52.1387C1.54823 51.7191 1.13537 51.2208 0.816341 50.6438C0.497311 50.0494 0.337796 49.3325 0.337796 48.4932C0.337796 47.654 0.506694 46.9021 0.84449 46.2377C1.18229 45.5558 1.66083 44.9788 2.28012 44.5068C2.89942 44.0347 3.65007 43.6763 4.5321 43.4315C5.41412 43.1692 6.40874 43.0381 7.51596 43.0381C8.82961 43.0381 9.96498 43.1692 10.9221 43.4315C11.8792 43.6937 12.6674 43.9822 13.2866 44.297L12.0199 47.5228C11.4757 47.2606 10.8658 47.0333 10.1902 46.841C9.53336 46.6311 8.73578 46.5262 7.79746 46.5262C6.74654 46.5262 5.9865 46.6661 5.51734 46.9459C5.06694 47.2081 4.84174 47.619 4.84174 48.1785C4.84174 48.5107 4.92619 48.7905 5.09509 49.0178C5.26399 49.2451 5.49857 49.4549 5.79883 49.6472C6.11786 49.8221 6.47443 49.9882 6.86852 50.1455C7.28138 50.2854 7.73178 50.434 8.21971 50.5914C9.23309 50.9411 10.1151 51.2908 10.8658 51.6404C11.6164 51.9726 12.2357 52.366 12.7237 52.8206C13.2303 53.2752 13.6057 53.8085 13.8496 54.4205C14.0936 55.0324 14.2156 55.7755 14.2156 56.6497C14.2156 58.3457 13.5775 59.6658 12.3014 60.61C11.0253 61.5367 9.10173 62 6.53073 62C5.66747 62 4.88866 61.9475 4.1943 61.8426C3.49994 61.7552 2.88065 61.6416 2.33642 61.5017C1.81096 61.3618 1.35118 61.2132 0.957089 61.0558C0.58176 60.8985 0.26273 60.7499 0 60.61L1.23859 57.3579C1.82035 57.6551 2.53347 57.9261 3.37796 58.1709C4.24122 58.3982 5.29214 58.5118 6.53073 58.5118Z" fill="url(#paint1_linear)"/>
<path d="M17.5944 43.4577H21.9858V61.6328H17.5944V43.4577Z" fill="url(#paint2_linear)"/>
<path d="M35.3965 62C32.2249 62 29.8041 61.1782 28.1338 59.5347C26.4824 57.8911 25.6567 55.557 25.6567 52.5322C25.6567 51.0285 25.91 49.6909 26.4167 48.5195C26.9234 47.3305 27.6178 46.3339 28.4998 45.5296C29.3818 44.7078 30.4327 44.0871 31.6525 43.6675C32.8724 43.2479 34.1954 43.0381 35.6217 43.0381C36.4474 43.0381 37.198 43.0993 37.8736 43.2217C38.5492 43.3266 39.1404 43.4577 39.6471 43.6151C40.1538 43.7549 40.576 43.9036 40.9138 44.0609C41.2516 44.2183 41.4956 44.3407 41.6457 44.4281L40.3789 47.7327C39.7784 47.4354 39.0747 47.1819 38.2677 46.9721C37.4795 46.7623 36.5787 46.6574 35.5654 46.6574C34.8898 46.6574 34.2236 46.7623 33.5667 46.9721C32.9287 47.1819 32.3563 47.5228 31.8496 47.9949C31.3617 48.4495 30.9676 49.044 30.6673 49.7783C30.367 50.5127 30.2169 51.4044 30.2169 52.4535C30.2169 53.2927 30.3107 54.0795 30.4984 54.8139C30.7048 55.5307 31.0239 56.1514 31.4555 56.676C31.9059 57.2005 32.4877 57.6201 33.2008 57.9349C33.9139 58.2321 34.7772 58.3807 35.7906 58.3807C36.4286 58.3807 37.001 58.3457 37.5077 58.2758C38.0144 58.2059 38.4648 58.1272 38.8589 58.0398C39.253 57.9349 39.6001 57.8212 39.9004 57.6988C40.2007 57.5764 40.4728 57.4628 40.7167 57.3579L41.9272 60.6362C41.3079 60.9859 40.4352 61.3006 39.3093 61.5804C38.1833 61.8601 36.879 62 35.3965 62Z" fill="url(#paint3_linear)"/>
<path d="M52.383 62C51.0131 62 49.8308 61.8252 48.8362 61.4755C47.8415 61.1083 47.0158 60.61 46.359 59.9805C45.7209 59.3336 45.2424 58.573 44.9234 57.6988C44.6231 56.8071 44.473 55.828 44.473 54.7614V43.4577H48.8643V54.4205C48.8643 55.1548 48.9488 55.7843 49.1177 56.3088C49.3053 56.8158 49.5493 57.2355 49.8496 57.5677C50.1686 57.8824 50.5439 58.1097 50.9755 58.2496C51.4259 58.3895 51.9139 58.4594 52.4393 58.4594C53.509 58.4594 54.3723 58.1534 55.0291 57.5415C55.7047 56.9295 56.0425 55.8892 56.0425 54.4205V43.4577H60.4338V54.7614C60.4338 55.828 60.2743 56.8071 59.9553 57.6988C59.6363 58.5905 59.1483 59.3598 58.4915 60.0068C57.8347 60.6362 56.9996 61.1258 55.9862 61.4755C54.9728 61.8252 53.7717 62 52.383 62Z" fill="url(#paint4_linear)"/>
<path d="M71.8072 50.9323C72.5954 49.6909 73.346 48.4495 74.0592 47.2081C74.7723 45.9667 75.4291 44.7166 76.0296 43.4577H80.8714C79.8017 45.416 78.6945 47.313 77.5497 49.1489C76.405 50.9848 75.1945 52.8294 73.9184 54.6827V61.6328H69.5271V54.7352C68.2509 52.8818 67.0311 51.0285 65.8676 49.1751C64.7228 47.3218 63.6156 45.416 62.5459 43.4577H67.641C68.2416 44.7166 68.889 45.9667 69.5834 47.2081C70.2777 48.4495 71.019 49.6909 71.8072 50.9323Z" fill="url(#paint5_linear)"/>
<defs>
<linearGradient id="paint0_linear" x1="-13.5" y1="18" x2="82" y2="62" gradientUnits="userSpaceOnUse">
<stop stop-color="#FF5C01"/>
<stop offset="1" stop-color="#FFB800"/>
</linearGradient>
<linearGradient id="paint1_linear" x1="-13.5" y1="18" x2="82" y2="62" gradientUnits="userSpaceOnUse">
<stop stop-color="#FF5C01"/>
<stop offset="1" stop-color="#FFB800"/>
</linearGradient>
<linearGradient id="paint2_linear" x1="-13.5" y1="18" x2="82" y2="62" gradientUnits="userSpaceOnUse">
<stop stop-color="#FF5C01"/>
<stop offset="1" stop-color="#FFB800"/>
</linearGradient>
<linearGradient id="paint3_linear" x1="-13.5" y1="18" x2="82" y2="62" gradientUnits="userSpaceOnUse">
<stop stop-color="#FF5C01"/>
<stop offset="1" stop-color="#FFB800"/>
</linearGradient>
<linearGradient id="paint4_linear" x1="-13.5" y1="18" x2="82" y2="62" gradientUnits="userSpaceOnUse">
<stop stop-color="#FF5C01"/>
<stop offset="1" stop-color="#FFB800"/>
</linearGradient>
<linearGradient id="paint5_linear" x1="-13.5" y1="18" x2="82" y2="62" gradientUnits="userSpaceOnUse">
<stop stop-color="#FF5C01"/>
<stop offset="1" stop-color="#FFB800"/>
</linearGradient>
</defs>
</svg>
