<svg width="14" height="18" viewBox="0 0 14 18" fill="none" xmlns="http://www.w3.org/2000/svg">
<path fill-rule="evenodd" clip-rule="evenodd" d="M6.99147 12.5946C7.64103 12.5946 8.16759 12.0645 8.16759 11.4105C8.16759 11.0781 8.03152 10.7776 7.81239 10.5626C7.91805 10.4601 8.03088 10.339 8.14058 10.2152C8.37275 9.95309 8.60479 9.66318 8.74832 9.47531L8.09091 9.11675C7.95442 9.2954 7.73281 9.57217 7.51414 9.81899C7.40459 9.94264 7.29924 10.0548 7.208 10.1422C7.17015 10.1784 7.13675 10.2084 7.10816 10.2322C7.06978 10.2284 7.03085 10.2264 6.99147 10.2264C6.34192 10.2264 5.81536 10.7566 5.81536 11.4105C5.81536 12.0645 6.34192 12.5946 6.99147 12.5946ZM7.22372 11.8228C7.31263 11.7333 7.38511 11.5897 7.38511 11.4105C7.38511 11.2314 7.31263 11.0877 7.22372 10.9982C7.13622 10.9101 7.05096 10.8875 6.99147 10.8875C6.93199 10.8875 6.84673 10.9101 6.75923 10.9982C6.67032 11.0877 6.59784 11.2314 6.59784 11.4105C6.59784 11.5897 6.67032 11.7333 6.75923 11.8228C6.84673 11.9109 6.93199 11.9335 6.99147 11.9335C7.05096 11.9335 7.13622 11.9109 7.22372 11.8228Z" fill="white"/>
<path fill-rule="evenodd" clip-rule="evenodd" d="M11.3599 11.4105C11.3599 13.8396 9.4041 15.8087 6.99147 15.8087C4.57885 15.8087 2.62303 13.8396 2.62303 11.4105C2.62303 8.98149 4.57885 7.01237 6.99147 7.01237C9.4041 7.01237 11.3599 8.98149 11.3599 11.4105ZM10.5774 11.4105C10.5774 13.5878 8.84903 15.1476 6.99147 15.1476C5.13392 15.1476 3.40552 13.5878 3.40552 11.4105C3.40552 9.2333 5.13392 7.67349 6.99147 7.67349C8.84903 7.67349 10.5774 9.2333 10.5774 11.4105Z" fill="white"/>
<path fill-rule="evenodd" clip-rule="evenodd" d="M0.131635 0V2.60646H6.60029V3.91999C5.23748 4.04315 4.10209 4.33642 3.17903 4.85851C2.17009 5.42917 1.44893 6.25387 0.953096 7.35796C-0.025934 9.53798 -0.14998 12.8689 0.132113 17.6858L0.150515 18H13.833L13.851 17.6854C14.1041 13.2501 14.1178 9.94408 13.2205 7.68562C12.7662 6.54238 12.072 5.64766 11.0423 5.01018C10.0909 4.42115 8.88352 4.07061 7.38278 3.92287V2.60646H13.8514V0H0.131635ZM3.61433 5.40789C4.46237 4.92823 5.56144 4.65183 6.98965 4.553C8.54999 4.67372 9.71096 5.00555 10.5798 5.54346C11.4507 6.08264 12.0633 6.85072 12.4787 7.89602C13.3006 9.96455 13.3236 13.0392 13.087 17.3389H0.895715C0.637049 12.6793 0.792224 9.57976 1.68469 7.59249C2.13456 6.59077 2.76549 5.888 3.61433 5.40789ZM0.914122 1.94534V0.66112H13.0689V1.94534H0.914122Z" fill="white"/>
</svg>
