<svg width="30" height="30" viewBox="0 0 30 30" fill="none" xmlns="http://www.w3.org/2000/svg">
<path d="M2.24124 4.32125L3.12499 3.4375L24.0625 24.375L23.1787 25.2588L19.225 21.305L14.375 26.155L4.42249 16.2025C3.8122 15.5939 3.32818 14.8706 2.99826 14.0743C2.66833 13.278 2.499 12.4244 2.49999 11.5625C2.49999 9.64375 3.32374 7.9175 4.63749 6.7175L2.23999 4.32125H2.24124ZM5.30374 15.3162L14.375 24.3863L18.34 20.42L5.52124 7.6025C4.96339 8.10029 4.51717 8.71048 4.2119 9.39298C3.90663 10.0755 3.74921 10.8148 3.74999 11.5625C3.74902 12.2596 3.88591 12.95 4.15278 13.594C4.41965 14.238 4.81123 14.8229 5.30499 15.315L5.30374 15.3162ZM23.445 15.3162C23.9804 14.7807 24.3952 14.1368 24.6614 13.4278C24.9276 12.7188 25.0392 11.9611 24.9886 11.2055C24.9381 10.4499 24.7265 9.71378 24.3682 9.0466C24.0099 8.37941 23.513 7.79655 22.911 7.33709C22.309 6.87764 21.6157 6.55221 20.8776 6.38263C20.1395 6.21305 19.3737 6.20324 18.6315 6.35385C17.8893 6.50446 17.1879 6.81202 16.5743 7.2559C15.9607 7.69978 15.449 8.26972 15.0737 8.9275H13.6762C13.2118 8.11386 12.5403 7.43759 11.73 6.96734C10.9197 6.49709 9.99937 6.24961 9.06249 6.25L7.84499 6.39L6.84124 5.385C7.55384 5.12926 8.30539 4.99899 9.06249 5C11.2475 5 13.1825 6.0675 14.375 7.70875C14.9066 6.9759 15.5842 6.36099 16.365 5.90269C17.1458 5.44439 18.013 5.15261 18.912 5.0457C19.8111 4.93879 20.7225 5.01907 21.589 5.28149C22.4555 5.54391 23.2584 5.98278 23.947 6.57052C24.6357 7.15826 25.1953 7.88213 25.5907 8.69663C25.986 9.51112 26.2086 10.3986 26.2443 11.3033C26.28 12.208 26.1282 13.1102 25.7983 13.9534C25.4684 14.7965 24.9677 15.5623 24.3275 16.2025L20.9925 19.5375L20.1075 18.6525L23.445 15.315V15.3162Z" fill="#979A9F"/>
</svg>
