<svg width="25" height="24" viewBox="0 0 25 24" fill="none" xmlns="http://www.w3.org/2000/svg">
<path d="M0.241484 1.32125L1.12523 0.4375L22.0627 21.375L21.179 22.2588L17.2252 18.305L12.3752 23.155L2.42273 13.2025C1.81244 12.5939 1.32843 11.8706 0.998501 11.0743C0.668577 10.278 0.499245 9.42442 0.500234 8.5625C0.500234 6.64375 1.32398 4.9175 2.63773 3.7175L0.240234 1.32125H0.241484ZM3.30398 12.3162L12.3752 21.3863L16.3402 17.42L3.52148 4.6025C2.96363 5.10029 2.51742 5.71048 2.21214 6.39298C1.90687 7.07548 1.74946 7.81484 1.75023 8.5625C1.74927 9.25961 1.88615 9.95002 2.15302 10.594C2.41989 11.238 2.81147 11.8229 3.30523 12.315L3.30398 12.3162ZM21.4452 12.3162C21.9807 11.7807 22.3954 11.1368 22.6616 10.4278C22.9279 9.71884 23.0395 8.96113 22.9889 8.2055C22.9383 7.44987 22.7268 6.71378 22.3684 6.0466C22.0101 5.37941 21.5133 4.79655 20.9112 4.33709C20.3092 3.87764 19.6159 3.55221 18.8778 3.38263C18.1397 3.21305 17.3739 3.20324 16.6317 3.35385C15.8895 3.50446 15.1881 3.81202 14.5745 4.2559C13.9609 4.69978 13.4493 5.26972 13.074 5.9275H11.6765C11.212 5.11386 10.5405 4.43759 9.73023 3.96734C8.91992 3.49709 7.99961 3.24961 7.06273 3.25L5.84523 3.39L4.84148 2.385C5.55409 2.12926 6.30563 1.99899 7.06273 2C9.24774 2 11.1827 3.0675 12.3752 4.70875C12.9069 3.9759 13.5844 3.36099 14.3652 2.90269C15.146 2.44439 16.0132 2.15261 16.9123 2.0457C17.8113 1.93879 18.7227 2.01907 19.5893 2.28149C20.4558 2.54391 21.2586 2.98278 21.9473 3.57052C22.636 4.15826 23.1956 4.88213 23.5909 5.69663C23.9863 6.51112 24.2088 7.39861 24.2446 8.30329C24.2803 9.20796 24.1284 10.1102 23.7986 10.9534C23.4687 11.7965 22.9679 12.5623 22.3277 13.2025L18.9927 16.5375L18.1077 15.6525L21.4452 12.315V12.3162Z" fill="white"/>
</svg>
