<svg width="36" height="21" viewBox="0 0 36 21" fill="none" xmlns="http://www.w3.org/2000/svg">
<path d="M18.0667 14.9708L19.2544 14.5445C20.4725 15.8358 21.2439 16.3852 22.9125 16.7894C23.6765 16.3919 24.0626 16.2266 24.6228 16.1074C26.1925 15.4224 27.2319 15.6044 29.1361 16.1074C32.1288 16.5097 32.2802 16.3561 32.6517 16.1074C32.6487 15.5144 32.8125 15.3431 33.3881 15.3118C33.7475 15.3101 33.9546 15.2428 34.3383 14.9708C35.013 14.1213 34.9833 13.3688 34.9559 12.0439C35.1047 9.84847 34.872 9.02988 34.3383 7.72461C33.9444 7.82352 33.735 7.73671 33.3881 7.24153C32.6151 5.77426 31.9885 5.50058 30.8464 5.08189C30.2613 4.9494 29.8814 4.95803 29.1361 5.08189C29.0129 4.69732 28.8595 4.49868 28.3047 4.20098C27.7806 4.27234 27.4778 4.16735 26.927 3.80315C26.5893 3.30058 26.3091 3.02452 25.0266 2.58125C24.0268 2.5822 23.4818 2.67617 22.5799 3.26324C21.9661 2.35575 21.4535 1.97521 20.157 1.58668C18.4897 1.7453 17.501 1.53241 15.7388 1.16043C13.5981 0.864337 12.4225 0.96232 10.3703 1.58668L7.70985 3.80315L5.61948 7.24153L5.00188 9.48642M18.0667 14.9708C18.4945 13.7377 18.5538 13.0843 18.0667 12.0439C17.4484 10.9559 17.1457 10.3324 15.7388 9.48642C15.1074 9.20763 14.7622 9.17997 14.171 9.48642C13.8735 9.11044 13.6628 8.95786 13.1971 8.80443C10.4141 8.47911 8.85379 8.26014 6.07081 8.80443C5.5713 8.903 5.34932 9.07703 5.00188 9.48642M18.0667 14.9708C17.6863 15.254 17.6153 15.3686 16.9977 15.1697C16.3801 14.9708 16.3501 15.2491 15.9288 15.0844C15.2837 15.3205 14.9356 15.3236 14.3135 15.3402C14.0567 15.247 13.9286 15.2263 13.9334 15.6528C13.9198 16.146 14.0426 16.3828 14.3135 16.7894L14.8598 17.1873C15.1207 17.1831 15.2426 17.2235 15.3587 17.4714C15.4837 17.5974 15.5222 17.6651 15.5725 17.784L15.3587 17.8977H15.0261V18.1534H14.5748L14.4085 18.0113L14.171 18.2671C13.7262 18.1627 13.5218 17.9603 13.1971 17.4714C12.8173 17.0123 12.5987 16.8123 12.1756 16.7894C11.131 17.0454 10.7109 16.9868 10.0378 16.7894C9.3832 16.3683 9.02192 16.1589 8.44623 16.1074C8.14712 16.3531 8.09251 16.5046 8.11367 16.7894C8.57497 17.2432 8.61868 17.3146 8.73128 17.4714L8.44623 17.9261H7.70985C7.31043 17.8733 7.13797 17.7577 6.87845 17.4714C6.80232 16.6515 6.91132 16.2809 7.25852 15.7096C7.01051 16.3086 6.87726 16.6621 6.47463 16.7894C5.55428 17.6094 4.89045 17.7663 3.64789 17.9261C3.19939 19.7047 2.97733 20.1214 2.62646 19.9721C1.92387 19.4739 1.78227 19.2574 1.84257 18.9491C2.66161 17.4854 2.61905 16.9492 2.34141 16.1074C2.00591 16.1518 1.84331 16.1404 1.84257 15.7096C0.980228 15.4148 0.941968 15.1191 1.03493 14.5445C1.12685 13.9433 1.26365 13.7383 1.84257 13.891C1.85892 12.8835 1.88021 12.3223 2.34141 11.4472C3.17771 10.2055 3.82932 9.93841 5.00188 9.48642M13.9334 10.6231C13.9574 11.1132 13.9607 11.384 14.4085 12.0439C14.3792 12.3801 14.5385 12.4944 15.0261 12.6122C15.3501 12.3275 15.5225 12.131 15.7388 11.4187C15.8137 11.1512 15.8346 10.989 15.7388 10.6231L15.3587 10.3389C14.6839 10.2519 14.3886 10.342 13.9334 10.6231ZM26.927 8.4066C26.1148 8.67263 25.7096 9.04488 25.0266 9.88425C25.2814 10.4743 26.6581 11.4455 27.5683 11.0493C28.1833 10.7817 29.3182 9.86531 29.825 9.48642C28.8873 8.84938 28.2658 8.59866 26.927 8.4066ZM30.9652 10.0548C30.3855 10.1396 30.2599 10.4012 30.205 11.0493C30.4003 11.599 30.6563 11.7856 31.2027 12.0439C31.7582 11.7782 31.8762 11.5221 32.0579 11.0493C31.8613 10.4572 31.6949 10.2086 31.2027 10.0548H30.9652ZM16.9265 11.7029C16.8017 11.6303 16.5612 11.9125 16.5701 12.1576C16.6159 12.4348 16.6918 12.5544 16.9265 12.6975C17.0635 12.6331 17.1255 12.5829 17.2115 12.4701C17.2465 12.1841 17.2431 12.0336 17.1165 11.8166L16.9265 11.7029Z" stroke="#B6B2B2"/>
</svg>
